# xmcd CD database file
#
# Track frame offsets:
#	182
#	12932
#	22007
#	33857
#	46832
#	58607
#	72182
#	78932
#	91607
#	105632
#	116732
#	129182
#	142007
#	154457
#	171857
#	177557
#	183782
#	201557
#	216482
#	226532
#	241532
#	253907
#	270857
#	281807
#	290057
#	300332
#	307832
#
# Disc length: 4221 seconds
#
# Revision: 0
# Processed by: cddbd v1.5.1PL0 Copyright (c) Steve Scherf et al.
# Submitted via: CDex 1.51
#
DISCID=72107b1b
DTITLE=Sonoton Authentic Series - SAS 029 - Authentic  France 
DYEAR=1989
DGENRE=Contentum
TTITLE0=Accordeon sur Seine 1 - Musette
TTITLE1=Accordeon sur Seine 2 - Musette
TTITLE2=Titi de Paris - Musette
TTITLE3=En avant, les Amis - Musette
TTITLE4=Valse aux Champs-Elysees - Musette
TTITLE5=La ballade de Montmartre 1 - Musette
TTITLE6=La ballade de Montmartre 2 - Musette
TTITLE7=Fete a danser
TTITLE8=Qu'elle est belle. mon auvergne 1
TTITLE9=Qu'elle est belle. mon auvergne 2
TTITLE10=Le bal de saint-flour 1
TTITLE11=Le bal de saint-flour 2
TTITLE12=Pastourelle. ma bien-Aimee
TTITLE13=Bretagne - An dro 1
TTITLE14=Bretagne - An dro 2
TTITLE15=Bretagne - An dro 3
TTITLE16=Bale Guilvinec
TTITLE17=Complaite de penmarch 1
TTITLE18=Complaite de penmarch 2
TTITLE19=Aubade a Maryvonne
TTITLE20=Fets al leur nevez
TTITLE21=Cansoun d'ou  pichoun 1
TTITLE22=Cansoun d'ou  pichoun 2
TTITLE23=Gavotina
TTITLE24=La Farandoulo de la prouvenco 1
TTITLE25=La Farandoulo de la prouvenco 2
TTITLE26=Mireio. danso la mazurka
EXTD=YEAR: 1989
EXTT0=
EXTT1=
EXTT2=
EXTT3=
EXTT4=
EXTT5=
EXTT6=
EXTT7=
EXTT8=
EXTT9=
EXTT10=
EXTT11=
EXTT12=
EXTT13=
EXTT14=
EXTT15=
EXTT16=
EXTT17=
EXTT18=
EXTT19=
EXTT20=
EXTT21=
EXTT22=
EXTT23=
EXTT24=
EXTT25=
EXTT26=
PLAYORDER=
